<?xml version="1.0" standalone="no"?>
<!DOCTYPE svg PUBLIC "-//W3C//DTD SVG 20010904//EN"
 "http://www.w3.org/TR/2001/REC-SVG-20010904/DTD/svg10.dtd">
<svg version="1.0" xmlns="http://www.w3.org/2000/svg"
 width="752.000000pt" height="752.000000pt" viewBox="0 0 752.000000 752.000000"
 preserveAspectRatio="xMidYMid meet">

<g transform="translate(0.000000,752.000000) scale(0.100000,-0.100000)"
fill="#000000" stroke="none">
<path d="M3297 5965 c-164 -31 -301 -94 -434 -200 -181 -143 -307 -357 -346
-590 l-13 -80 -78 -7 c-402 -37 -742 -337 -843 -746 -25 -101 -23 -332 5 -434
59 -216 183 -409 346 -535 l39 -30 -31 -74 c-56 -135 -74 -214 -79 -355 -4
-99 -2 -150 11 -213 94 -463 478 -783 941 -784 132 -1 196 10 328 55 49 16 90
28 91 26 1 -2 28 -38 60 -81 128 -170 320 -296 532 -349 126 -31 332 -31 459
0 370 92 655 402 719 782 l12 75 78 7 c224 21 435 125 597 296 149 158 236
341 261 551 36 307 -91 631 -327 834 -38 34 -69 68 -68 77 1 8 17 56 36 105
89 227 91 456 6 690 -144 397 -568 660 -991 615 -104 -11 -141 -19 -246 -57
-40 -14 -74 -24 -75 -22 -2 2 -29 39 -61 82 -127 168 -321 296 -527 347 -112
28 -297 35 -402 15z m331 -151 c199 -41 391 -165 500 -325 l31 -46 -492 -284
c-556 -320 -554 -319 -564 -339 -5 -8 -10 -297 -13 -642 l-5 -627 -217 126
-218 126 0 642 c0 683 2 713 49 849 131 374 536 601 929 520z m1266 -379 c147
-39 254 -97 362 -198 245 -228 322 -579 197 -900 -15 -37 -30 -70 -34 -73 -4
-2 -153 80 -331 182 -655 379 -717 414 -733 414 -9 0 -30 -7 -47 -16 -34 -18
-983 -563 -1036 -596 l-32 -20 2 258 3 258 175 101 c953 552 928 538 1009 567
139 49 332 59 465 23z m-2369 -1724 c11 -10 252 -153 535 -317 283 -163 523
-302 532 -309 14 -9 -17 -30 -203 -138 l-220 -127 -197 114 c-720 415 -847
488 -894 519 -76 48 -162 130 -214 203 -158 221 -196 503 -103 758 103 283
373 495 667 524 l67 7 5 -607 c5 -591 6 -608 25 -627z m2366 678 c288 -166
544 -316 569 -333 300 -203 426 -602 299 -950 -103 -284 -369 -493 -667 -524
l-72 -8 0 602 0 603 -22 25 c-13 13 -180 116 -373 227 -192 111 -404 233 -470
272 -66 38 -148 85 -182 105 -41 24 -59 39 -50 44 214 128 425 246 433 243 6
-2 247 -140 535 -306z m-866 -182 l250 -145 0 -302 0 -303 -258 -148 -258
-149 -260 151 -259 151 2 300 3 301 255 147 c140 82 260 147 265 145 6 -1 123
-68 260 -148z m633 -367 l212 -123 0 -642 c0 -518 -3 -658 -14 -717 -52 -263
-209 -471 -441 -583 -118 -58 -187 -75 -321 -82 -176 -9 -338 34 -483 127 -70
45 -175 146 -219 211 l-31 46 524 302 c465 268 525 305 534 333 7 21 11 231
11 645 0 338 3 612 8 610 4 -2 103 -59 220 -127z m-390 -1066 c-26 -24 -1085
-629 -1139 -651 -114 -46 -177 -57 -314 -57 -111 1 -143 5 -218 28 -104 31
-170 63 -252 121 -303 215 -417 612 -278 968 15 37 30 70 34 73 4 2 242 -131
528 -296 286 -165 528 -300 539 -300 18 0 88 39 787 442 l320 184 3 -250 c2
-192 -1 -253 -10 -262z"/>
</g>
</svg>
